<?xml version="1.0" standalone="no"?>
<!DOCTYPE svg PUBLIC "-//W3C//DTD SVG 20010904//EN"
 "http://www.w3.org/TR/2001/REC-SVG-20010904/DTD/svg10.dtd">
<svg version="1.0" xmlns="http://www.w3.org/2000/svg"
 width="500.000000pt" height="500.000000pt" viewBox="0 0 500.000000 500.000000"
 preserveAspectRatio="xMidYMid meet">

<g transform="translate(0.000000,500.000000) scale(0.100000,-0.100000)"
fill="#000000" stroke="none">
<path d="M2143 4840 c-234 -36 -488 -116 -696 -220 -139 -70 -341 -200 -443
-285 -205 -171 -401 -397 -527 -607 -152 -252 -255 -525 -309 -818 -26 -144
-37 -538 -18 -689 98 -799 592 -1495 1305 -1841 226 -110 406 -169 662 -217
142 -26 624 -26 766 0 257 48 436 107 662 217 378 183 697 465 935 826 195
295 321 638 370 1007 15 115 12 483 -5 602 -63 445 -240 851 -519 1189 -372
451 -903 752 -1475 836 -184 27 -530 27 -708 0z m125 -1632 l-3 -283 -307 -3
-308 -2 -2 -298 -3 -297 -312 -3 -313 -2 0 585 0 585 625 0 625 0 -2 -282z
m1802 -728 l0 -1010 -263 0 -264 0 -224 242 c-348 376 -501 542 -510 552 -5 5
-35 -16 -69 -48 -100 -92 -218 -160 -360 -206 -36 -12 -69 -24 -73 -27 -5 -3
22 -37 60 -77 251 -262 393 -417 393 -430 0 -3 -163 -6 -363 -6 l-363 0 -84
97 c-47 53 -131 146 -187 207 l-103 111 0 211 0 211 140 6 c78 4 168 14 202
23 81 21 166 64 205 106 56 59 63 91 63 288 0 153 2 179 16 184 9 3 152 6 318
6 l302 0 75 -77 c41 -43 128 -136 194 -208 66 -71 178 -192 248 -267 l127
-137 0 630 0 629 260 0 260 0 0 -1010z"/>
</g>
</svg>
